{"title":"American Pie Collection 1-7 (PSP + Ipod touch + Zune)","uid":5659524,"size":2644502751,"categoryP":"video","categoryS":"handheld","magnet":"?xt=urn:btih:1105e83564dbebe77a27d9cff3be020941540610&amp;dn=American+Pie+Collection+1-7+%28PSP+%2B+Ipod+touch+%2B+Zune%29&amp;tr=udp%3A%2F%2Ftracker.openbittorrent.com%3A80&amp;tr=udp%3A%2F%2Fopen.demonii.com%3A1337&amp;tr=udp%3A%2F%2Ftracker.coppersurfer.tk%3A6969&amp;tr=udp%3A%2F%2Fexodus.desync.com%3A6969","seeders":3,"leechers":1,"uploader":"on.off.on","files":-1,"time":1277920591,"description":"American Pie Collection 1-7 &lt;a href=&quot;\nhttp://www.imdb.com/title/tt0163651/&quot; rel=&quot;nofollow&quot; target=&quot;_NEW&quot;&gt;\nhttp://www.imdb.com/title/tt0163651/&lt;/a&gt; &lt;a href=&quot;\nhttp://www.imdb.com/title/tt0252866/&quot; rel=&quot;nofollow&quot; target=&quot;_NEW&quot;&gt;\nhttp://www.imdb.com/title/tt0252866/&lt;/a&gt; &lt;a href=&quot;\nhttp://www.imdb.com/title/tt0328828/&quot; rel=&quot;nofollow&quot; target=&quot;_NEW&quot;&gt;\nhttp://www.imdb.com/title/tt0328828/&lt;/a&gt; &lt;a href=&quot;\nhttp://www.imdb.com/title/tt0436058/&quot; rel=&quot;nofollow&quot; target=&quot;_NEW&quot;&gt;\nhttp://www.imdb.com/title/tt0436058/&lt;/a&gt; &lt;a href=&quot;\nhttp://www.imdb.com/title/tt0808146/&quot; rel=&quot;nofollow&quot; target=&quot;_NEW&quot;&gt;\nhttp://www.imdb.com/title/tt0808146/&lt;/a&gt; &lt;a href=&quot;\nhttp://www.imdb.com/title/tt0974959/&quot; rel=&quot;nofollow&quot; target=&quot;_NEW&quot;&gt;\nhttp://www.imdb.com/title/tt0974959/&lt;/a&gt; &lt;a href=&quot;\nhttp://www.imdb.com/title/tt1407050/&quot; rel=&quot;nofollow&quot; target=&quot;_NEW&quot;&gt;\nhttp://www.imdb.com/title/tt1407050/&lt;/a&gt;\n\n\nSource  :\n\nAmerican pie 1-6 NeRoZ-Unrated.700MB DVDRIP\nAmerican Pie The Book of Love DVDRip XviD RUBY (RATED R :p lol)\n\nNOTE THIS IS ONLY DVDRIPS NOT MY USUAL RE-ENCODED BLURAY RIPS..\nWHAT DOES THIS MEAN? IT MEANS THE QUALITY IS A LITTLE LOWER THEN USUAL \nBUT STILL GOOD..............\n\nOh and theres no subs... Yes Yes Im a big jerk! lol\n\n\nSample Info from American pie 1 :\n\nID                               : 1\nFormat                           : AVC\nFormat/Info                      : Advanced Video Codec\nFormat profile                   : &lt;a class=&quot;__cf_email__&quot; href=&quot;/cdn-cgi/l/email-protection&quot; data-cfemail=&quot;d290b3a1b7bebbbcb7929ee0fce3&quot;&gt;[email&amp;#160;protected]&lt;/a&gt;&lt;script cf-hash='f9e31' type=&quot;text/javascript&quot;&gt;\n/* &lt;![CDATA[ */!function(){try{var t=&quot;currentScript&quot;in document?document.currentScript:function(){for(var t=document.getElementsByTagName(&quot;script&quot;),e=t.length;e--;)if(t[e].getAttribute(&quot;cf-hash&quot;))return t[e]}();if(t&amp;&amp;t.previousSibling){var e,r,n,i,c=t.previousSibling,a=c.getAttribute(&quot;data-cfemail&quot;);if(a){for(e=&quot;&quot;,r=parseInt(a.substr(0,2),16),n=2;a.length-n;n+=2)i=parseInt(a.substr(n,2),16)^r,e+=String.fromCharCode(i);e=document.createTextNode(e),c.parentNode.replaceChild(e,c)}}}catch(u){}}();/* ]]&gt; */&lt;/script&gt;\nFormat settings, CABAC           : No\nFormat settings, ReFrames        : 3 frames\nCodec ID                         : avc1\nCodec ID/Info                    : Advanced Video Coding\nDuration                         : 1h 34mn\nBit rate mode                    : Variable\nBit rate                         : 400 Kbps\nWidth                            : 480 pixels\nHeight                           : 272 pixels\nDisplay aspect ratio             : 16:9\nFrame rate mode                  : Variable\nFrame rate                       : 23.976 fps\nMinimum frame rate               : 11.989 fps\nMaximum frame rate               : 23.981 fps\nColor space                      : YUV\nChroma subsampling               : 4:2:0\nBit depth                        : 8 bits\nScan type                        : Progressive\nBits/(Pixel*Frame)               : 0.128\nStream size                      : 271 MiB (75%)\nWriting library                  : x264 core 79\n\nID                               : 2\nFormat                           : AAC\nFormat/Info                      : Advanced Audio Codec\nFormat version                   : Version 4\nFormat profile                   : LC\nFormat settings, SBR             : No\nCodec ID                         : 40\nDuration                         : 1h 34mn\nBit rate mode                    : Variable\nBit rate                         : 128 Kbps\nMaximum bit rate                 : 210 Kbps\nChannel(s)                       : 2 channels\nChannel positions                : Front: L R\nSampling rate                    : 48.0 KHz\nStream size                      : 86.7 MiB (24%)\n\nRandom Screens : &lt;a href=&quot;\nhttp://img291.imageshack.us/img291/8090/vlcsnap00001i.png&quot; rel=&quot;nofollow&quot; target=&quot;_NEW&quot;&gt;\nhttp://img291.imageshack.us/img291/8090/vlcsnap00001i.png&lt;/a&gt; &lt;a href=&quot;\nhttp://img704.imageshack.us/img704/3879/vlcsnap00002p.png&quot; rel=&quot;nofollow&quot; target=&quot;_NEW&quot;&gt;\nhttp://img704.imageshack.us/img704/3879/vlcsnap00002p.png&lt;/a&gt; &lt;a href=&quot;\nhttp://img52.imageshack.us/img52/8112/vlcsnap00003aj.png&quot; rel=&quot;nofollow&quot; target=&quot;_NEW&quot;&gt;\nhttp://img52.imageshack.us/img52/8112/vlcsnap00003aj.png&lt;/a&gt; &lt;a href=&quot;\nhttp://img249.imageshack.us/img249/6262/vlcsnap00004qv.png&quot; rel=&quot;nofollow&quot; target=&quot;_NEW&quot;&gt;\nhttp://img249.imageshack.us/img249/6262/vlcsnap00004qv.png&lt;/a&gt; &lt;a href=&quot;\nhttp://img249.imageshack.us/img249/5996/vlcsnap00005b.png&quot; rel=&quot;nofollow&quot; target=&quot;_NEW&quot;&gt;\nhttp://img249.imageshack.us/img249/5996/vlcsnap00005b.png&lt;/a&gt; &lt;a href=&quot;\nhttp://img695.imageshack.us/img695/2403/vlcsnap00007e.png&quot; rel=&quot;nofollow&quot; target=&quot;_NEW&quot;&gt;\nhttp://img695.imageshack.us/img695/2403/vlcsnap00007e.png&lt;/a&gt; &lt;a href=&quot;\nhttp://img227.imageshack.us/img227/5291/vlcsnap00008w.png&quot; rel=&quot;nofollow&quot; target=&quot;_NEW&quot;&gt;\nhttp://img227.imageshack.us/img227/5291/vlcsnap00008w.png&lt;/a&gt; &lt;a href=&quot;\nhttp://img692.imageshack.us/img692/1506/vlcsnap00009x.png&quot; rel=&quot;nofollow&quot; target=&quot;_NEW&quot;&gt;\nhttp://img692.imageshack.us/img692/1506/vlcsnap00009x.png&lt;/a&gt; &lt;a href=&quot;\nhttp://img819.imageshack.us/img819/38/vlcsnap00011p.png&quot; rel=&quot;nofollow&quot; target=&quot;_NEW&quot;&gt;\nhttp://img819.imageshack.us/img819/38/vlcsnap00011p.png&lt;/a&gt; &lt;a href=&quot;\nhttp://img413.imageshack.us/img413/7977/vlcsnap00012r.png&quot; rel=&quot;nofollow&quot; target=&quot;_NEW&quot;&gt;\nhttp://img413.imageshack.us/img413/7977/vlcsnap00012r.png&lt;/a&gt; &lt;a href=&quot;\nhttp://img203.imageshack.us/img203/5263/vlcsnap00013j.png&quot; rel=&quot;nofollow&quot; target=&quot;_NEW&quot;&gt;\nhttp://img203.imageshack.us/img203/5263/vlcsnap00013j.png&lt;/a&gt;\n\n\nPLEASE LET THE TORRENT SEED AND SHARE IT WITH ALL YOU KNOW!\n\nLet me know what I can do to be your trusted source of Handheld videos. &lt;a href=&quot;\nhttp://thepiratebay.se/user/on.off.on/&quot; rel=&quot;nofollow&quot; target=&quot;_NEW&quot;&gt;\nhttp://thepiratebay.se/user/on.off.on/&lt;/a&gt; -OOO\n","torrent":{"xt":"urn:btih:1105e83564dbebe77a27d9cff3be020941540610","amp;dn":"American+Pie+Collection+1-7+%28PSP+%2B+Ipod+touch+%2B+Zune%29","amp;tr":["udp%3A%2F%2Ftracker.openbittorrent.com%3A80","udp%3A%2F%2Fopen.demonii.com%3A1337","udp%3A%2F%2Ftracker.coppersurfer.tk%3A6969","udp%3A%2F%2Fexodus.desync.com%3A6969"],"infoHash":"1105e83564dbebe77a27d9cff3be020941540610","infoHashBuffer":{"type":"Buffer","data":[17,5,232,53,100,219,235,231,122,39,217,207,243,190,2,9,65,84,6,16]},"announce":[],"urlList":[]}}